<svg xmlns="http://www.w3.org/2000/svg" width="59.48" height="59.48" viewBox="0 0 59.48 59.48"><title>icon_filtering</title><path d="M59.48,4.07V1.91H47.06V1.08A1.08,1.08,0,0,0,46,0H40.25a1.08,1.08,0,0,0-1.08,1.08v.83H30.69a4.91,4.91,0,0,0-4.9,4.9v4.65H25a1.09,1.09,0,0,0-1.08,1.08v3.82A1.08,1.08,0,0,0,25,17.44h9.55a1.08,1.08,0,0,0,1.08-1.08V12.54a1.08,1.08,0,0,0-1.08-1.08h-.83V9.8h5.49v.83a1.08,1.08,0,0,0,1.08,1.08H46a1.08,1.08,0,0,0,1.08-1.08V9.8H59.48V7.64H52.79V4.07Zm-8.85,0V7.64H47.06V4.07ZM44.9,2.16V9.55H41.33V2.16ZM28,6.81a2.74,2.74,0,0,1,2.74-2.74h2.74V7.64H32.6a1.09,1.09,0,0,0-1.08,1.08v2.74H28Zm5.48,6.81v1.66H26V13.62Zm5.74-9.55V7.64H35.59V4.07Z" fill="#43c1fc"/><path d="M44.07,19.1H15.41a1.08,1.08,0,0,0-1.08,1.09V24a1.08,1.08,0,0,0,1.08,1.08h.89l1.85,33.37a1.08,1.08,0,0,0,1.08,1h21a1.07,1.07,0,0,0,1.07-1l1.86-33.37h.89A1.09,1.09,0,0,0,45.15,24V20.19A1.09,1.09,0,0,0,44.07,19.1Zm-8.73,9.81v1.66H31.52v2.16h3.82v1.66H29.61v2.16h5.73v1.66H31.52v2.16h3.82V42H29.61v2.16h5.73v1.66H31.52V48h3.82v1.66H24.13V25.09H35.34v1.66H29.61v2.16ZM24.13,53.49V51.83H35.34v1.66Zm-1.08,2.16H36.42a1.08,1.08,0,0,0,1.08-1.08V25.09H41L39.22,57.32h-19L18.46,25.09H22V54.57A1.08,1.08,0,0,0,23.05,55.65ZM43,21.27v1.66H16.49V21.27Z" fill="#115bc6"/><path d="M53.49,43.11a.83.83,0,0,1-.83.83h-.12V46.1h.12a3,3,0,0,0,3-3V43H53.49Z" fill="#f9e900"/><path d="M58.34,39l-4.75-7.92a1.12,1.12,0,0,0-1.85,0L47,39a8,8,0,0,0-1.14,4.1,6.82,6.82,0,0,0,13.63,0A8,8,0,0,0,58.34,39Zm-1,4.1a4.66,4.66,0,0,1-9.31,0,5.83,5.83,0,0,1,.83-3l3.82-6.37,3.83,6.37A5.83,5.83,0,0,1,57.32,43.11Z" fill="#f9e900"/><path d="M58.23,19.91l-2.76-4.15a1.12,1.12,0,0,0-1.79,0l-2.77,4.15A7.35,7.35,0,0,0,49.67,24a4.91,4.91,0,0,0,9.81,0A7.28,7.28,0,0,0,58.23,19.91Zm-3.66,6.84A2.74,2.74,0,0,1,51.83,24a5.23,5.23,0,0,1,.88-2.9l1.86-2.8,1.87,2.8a5.23,5.23,0,0,1,.88,2.9A2.75,2.75,0,0,1,54.57,26.75Z" fill="#115bc6"/><path d="M7.64,30.69a.83.83,0,0,1-.83.83H6.69v2.16h.12a3,3,0,0,0,3-3v-.12H7.64Z" fill="#115bc6"/><path d="M12.49,26.59,7.74,18.67a1.08,1.08,0,0,0-.93-.49,1.09,1.09,0,0,0-.93.49L1.14,26.59A7.92,7.92,0,0,0,0,30.69a6.81,6.81,0,0,0,13.62,0A8,8,0,0,0,12.49,26.59Zm-1,4.1a4.65,4.65,0,0,1-9.3,0,5.83,5.83,0,0,1,.83-3l3.82-6.37,3.82,6.37A5.76,5.76,0,0,1,11.46,30.69Z" fill="#115bc6"/><path d="M12.38,4.62,9.62.48a1.12,1.12,0,0,0-1.8,0L5.06,4.62a7.4,7.4,0,0,0-1.24,4.1,4.9,4.9,0,0,0,9.8,0A7.4,7.4,0,0,0,12.38,4.62Zm-.92,4.1A2.74,2.74,0,0,1,6,8.72a5.26,5.26,0,0,1,.88-2.9L8.72,3l1.86,2.79A5.16,5.16,0,0,1,11.46,8.72Z" fill="#f9e900"/></svg>