<svg xmlns="http://www.w3.org/2000/svg" width="47.13" height="33.07" viewBox="0 0 47.13 33.07"><title>icon_quotes-little</title><path d="M47.13,22.6c0-9.15-5.07-18.55-12.05-22.35a2.11,2.11,0,0,0-2.84.84,2.09,2.09,0,0,0,.84,2.84A19.16,19.16,0,0,1,40.8,13a10.47,10.47,0,1,0,6.33,9.61Zm-4.19,0a6.29,6.29,0,1,1-6.29-6.28A6.29,6.29,0,0,1,42.94,22.6Z" fill="#1b65f9"/><path d="M20.94,22.6c0-9.15-5.06-18.55-12-22.35a2.11,2.11,0,0,0-2.84.84A2.09,2.09,0,0,0,6.9,3.93C10.1,5.68,12.84,9,14.62,13a10.47,10.47,0,1,0,6.32,9.61Zm-4.18,0a6.29,6.29,0,1,1-6.29-6.28A6.29,6.29,0,0,1,16.76,22.6Z" fill="#1b65f9"/></svg>