<svg xmlns="http://www.w3.org/2000/svg" width="42.82" height="42.82" viewBox="0 0 42.82 42.82"><title>icon_nomedicines</title><path d="M7.14,14.27A7.14,7.14,0,1,0,0,7.14,7.14,7.14,0,0,0,7.14,14.27Zm0-2.37a4.69,4.69,0,0,1-2.41-.67l6.5-6.51A4.75,4.75,0,0,1,7.14,11.9Zm0-9.52A4.71,4.71,0,0,1,9.55,3L3,9.55a4.71,4.71,0,0,1-.66-2.41A4.76,4.76,0,0,1,7.14,2.38Z"/><path d="M1.54,37.72a1.18,1.18,0,0,0,.84.35,1.2,1.2,0,0,0,.84-.35L8.92,32l.94.94a1.2,1.2,0,0,0,1.69,0l2.72-2.73,1.54,1.54a1.22,1.22,0,0,0,.84.35,1.18,1.18,0,0,0,.84-.35L35.34,13.93a1.21,1.21,0,0,0,0-1.69L33.8,10.71l3.08-3.08.34.35a1.2,1.2,0,0,0,1.69,0,1.2,1.2,0,0,0,0-1.68L37.72,5.11,34.15,1.54,33,.35a1.18,1.18,0,0,0-1.68,0,1.18,1.18,0,0,0,0,1.68l.35.35L28.55,5.46,27,3.92a1.18,1.18,0,0,0-1.68,0L7.49,21.76a1.18,1.18,0,0,0,0,1.68L9,25,6.3,27.71a1.18,1.18,0,0,0,0,1.68l.94.94L1.54,36A1.19,1.19,0,0,0,1.54,37.72ZM33.31,4.06,35.19,6,32.12,9,30.23,7.14ZM26.17,6.44l6.64,6.64L28,18l-2.13-2.14a1.2,1.2,0,0,0-1.68,0,1.18,1.18,0,0,0,0,1.68l2.13,2.14-1.88,1.88-2.14-2.13a1.19,1.19,0,0,0-1.68,1.68L22.7,23.2l-1.88,1.88L18.68,23A1.19,1.19,0,0,0,17,24.63l2.13,2.13-2.48,2.49L10,22.6ZM10.71,26.66l1.88,1.89-1.88,1.89L8.82,28.55Z"/><path d="M41.08,23.15a6,6,0,0,0-8.41,0l-9.52,9.52a6,6,0,0,0,8.42,8.41l9.51-9.51A6,6,0,0,0,41.08,23.15ZM29.88,39.4a3.57,3.57,0,0,1-5-5l3.91-3.91,5,5Zm9.52-9.52L35.48,33.8l-5-5,3.91-3.91a3.57,3.57,0,0,1,5,5Z"/></svg>