<svg xmlns="http://www.w3.org/2000/svg" width="21.35" height="21.36" viewBox="0 0 21.35 21.36"><title>icon_close</title><path d="M18.23,3.13A10.68,10.68,0,0,0,3.12,18.23,10.68,10.68,0,0,0,18.23,3.13ZM17,17A8.93,8.93,0,0,1,4.36,4.37h0A8.93,8.93,0,1,1,17,17Z" fill="#fff"/><path d="M14.48,6.87a1,1,0,0,0-1.34,0L10.67,9.34,8.21,6.87A.95.95,0,0,0,6.87,8.21l2.46,2.47L6.87,13.15a1,1,0,0,0,.67,1.62,1,1,0,0,0,.67-.28L10.67,12l2.47,2.47a1,1,0,0,0,.67.28,1,1,0,0,0,.67-1.62L12,10.68l2.46-2.47A1,1,0,0,0,14.48,6.87Z" fill="#fff"/></svg>