<svg xmlns="http://www.w3.org/2000/svg" width="47.81" height="53.78" viewBox="0 0 47.81 53.78"><title>icon_skull</title><path d="M19.52,26.1a4.05,4.05,0,1,1,4.05-4.05A4,4,0,0,1,19.52,26.1Zm0-5.65a1.6,1.6,0,1,0,1.6,1.6A1.62,1.62,0,0,0,19.52,20.45Z"/><path d="M28.42,26.1a4.05,4.05,0,1,1,4-4.05A4.07,4.07,0,0,1,28.42,26.1Zm0-5.65A1.6,1.6,0,1,0,30,22.05,1.62,1.62,0,0,0,28.42,20.45Z"/><path d="M47.68,37.25a3.54,3.54,0,0,0-1.4-1.92A3.5,3.5,0,0,0,46.15,33a3,3,0,0,0-1.93-1.79,3.71,3.71,0,0,0-2.92.2,5.73,5.73,0,0,0-2.39,3.18L12.09,44.22a5.11,5.11,0,0,0-3.92-1,3.61,3.61,0,0,0-2.32,1.59,3.25,3.25,0,0,0-.34,2.59,3.35,3.35,0,0,0,1.4,1.92A3.39,3.39,0,0,0,7,51.72,3,3,0,0,0,9,53.52a3.76,3.76,0,0,0,1.19.2,3.45,3.45,0,0,0,1.66-.4,5.07,5.07,0,0,0,2.32-3.19L41,40.5a5.09,5.09,0,0,0,3.91,1,3.88,3.88,0,0,0,2.39-1.73A3,3,0,0,0,47.68,37.25Zm-2.4,1.33a1.11,1.11,0,0,1-.79.53,4.3,4.3,0,0,1-2.66-1A1.18,1.18,0,0,0,40.7,38L12.75,48.07a1.13,1.13,0,0,0-.73.8,4.1,4.1,0,0,1-1.33,2.39,1.48,1.48,0,0,1-.93.07.64.64,0,0,1-.46-.47,1.32,1.32,0,0,1,.13-1.13.53.53,0,0,1,.13-.26,1.49,1.49,0,0,0-.73-1.86.06.06,0,0,1-.06-.07,1.32,1.32,0,0,1-.8-.79A.74.74,0,0,1,8,46.08a1.43,1.43,0,0,1,.73-.53H9.1a3.76,3.76,0,0,1,2.12.93,1.13,1.13,0,0,0,1.2.2l28-10a1.12,1.12,0,0,0,.73-.79,3.94,3.94,0,0,1,1.39-2.39,1.08,1.08,0,0,1,.93-.07.84.84,0,0,1,.47.46A1.32,1.32,0,0,1,43.89,35l-.07.07a1.51,1.51,0,0,0,.6,1.92.5.5,0,0,0,.27.14,1.33,1.33,0,0,1,.79.79A1.7,1.7,0,0,1,45.28,38.58Z"/><path d="M39.77,43.23a5.14,5.14,0,0,0-3.91,1l-2.59-.93-3.59,1.26,6,2.13a1.29,1.29,0,0,0,1.2-.2,3,3,0,0,1,2.39-.86,1.61,1.61,0,0,1,.73.53.79.79,0,0,1,.07.66,1.2,1.2,0,0,1-.8.8s-.07,0-.07.06a1.49,1.49,0,0,0-.73,1.86.5.5,0,0,0,.14.27,1.57,1.57,0,0,1,.13,1.13.66.66,0,0,1-.47.46,1.09,1.09,0,0,1-.93-.06,3.51,3.51,0,0,1-1.32-2.39,1.27,1.27,0,0,0-.73-.8l-7.64-2.72L24.1,46.68l9.83,3.52a5.36,5.36,0,0,0,2.32,3.18,3.4,3.4,0,0,0,1.66.4,3.6,3.6,0,0,0,1.2-.2A3.42,3.42,0,0,0,41,51.79a3.81,3.81,0,0,0,.13-2.32,3.74,3.74,0,0,0,1.39-1.93A3.13,3.13,0,0,0,42.23,45,4.12,4.12,0,0,0,39.77,43.23Z"/><path d="M14.68,43.29,18.26,42l-11.09-4A1.25,1.25,0,0,0,6,38.18a4,4,0,0,1-2.66,1,1.56,1.56,0,0,1-.79-.6.74.74,0,0,1-.07-.67,1.32,1.32,0,0,1,.8-.79A.48.48,0,0,0,3.52,37a1.5,1.5,0,0,0,.6-1.92L4.05,35A1.3,1.3,0,0,1,4,33.86a.65.65,0,0,1,.46-.46,1.08,1.08,0,0,1,.93.07,3.74,3.74,0,0,1,1.39,2.39,1.27,1.27,0,0,0,.74.79l12.74,4.58L23.84,40,8.9,34.59a5.23,5.23,0,0,0-2.39-3.18,3.71,3.71,0,0,0-2.92-.2A3.39,3.39,0,0,0,1.66,33a3.53,3.53,0,0,0-.13,2.33A3.2,3.2,0,0,0,.14,37.25a3.2,3.2,0,0,0,.33,2.59,3.92,3.92,0,0,0,2.39,1.73,5.75,5.75,0,0,0,3.91-1Z"/><path d="M28.09,36.39H19.66a2.88,2.88,0,0,1-2.86-2.86V30.08c-.2,0-.46.07-.73.07h0a5.68,5.68,0,0,1-3.85-9.83,13.56,13.56,0,0,1,2.26-16.4A13.3,13.3,0,0,1,24.17,0,13.64,13.64,0,0,1,37.58,12.62a13,13,0,0,1-1.79,7.7,5.55,5.55,0,0,1,1.73,4.12,5.69,5.69,0,0,1-5.71,5.64A3.1,3.1,0,0,1,31,30v3.46A3,3,0,0,1,28.09,36.39ZM18,27.22a1.3,1.3,0,0,1,.66.2,1.25,1.25,0,0,1,.6,1v5a.45.45,0,0,0,.46.46h8.43a.45.45,0,0,0,.47-.46v-5a1.18,1.18,0,0,1,.53-1,1.27,1.27,0,0,1,1.2-.06,3.87,3.87,0,0,0,1.52.33,3.27,3.27,0,0,0,1.73-6,1.79,1.79,0,0,1-.6-.8,1,1,0,0,1,.2-.93,11.38,11.38,0,0,0,2-7.17,11.17,11.17,0,0,0-22.31.8,11,11,0,0,0,2,6.37,1.2,1.2,0,0,1-.4,1.73A3.17,3.17,0,0,0,13,25.17a3.25,3.25,0,0,0,3.12,2.52h0a3.49,3.49,0,0,0,1.39-.33A1.26,1.26,0,0,1,18,27.22Z"/><path d="M21.85,30.21a1.09,1.09,0,0,1-.67-.2,1.19,1.19,0,0,1-.33-1.66l2.06-3.12a1.2,1.2,0,0,1,2,0L27,28.35a1.2,1.2,0,1,1-2,1.33l-1.06-1.59-1.07,1.59A1,1,0,0,1,21.85,30.21Z"/></svg>