<svg xmlns="http://www.w3.org/2000/svg" width="109.68" height="76.97" viewBox="0 0 109.68 76.97"><title>icon_quotes-big</title><path d="M24.37,77a24.37,24.37,0,1,0-9.65-46.74c4.13-9.22,10.53-17,18-21.07A4.88,4.88,0,0,0,28,.59C11.79,9.43,0,31.3,0,52.6A24.39,24.39,0,0,0,24.37,77Zm0-39A14.63,14.63,0,1,1,9.75,52.6,14.64,14.64,0,0,1,24.37,38Z" fill="#1b65f9"/><path d="M85.31,77a24.37,24.37,0,1,0-9.66-46.74c4.14-9.22,10.53-17,18-21.07A4.88,4.88,0,0,0,89,.59c-16.25,8.84-28,30.71-28,52A24.4,24.4,0,0,0,85.31,77Zm0-39A14.63,14.63,0,1,1,70.68,52.6,14.64,14.64,0,0,1,85.31,38Z" fill="#1b65f9"/></svg>