<svg xmlns="http://www.w3.org/2000/svg" width="59.1" height="59.1" viewBox="0 0 59.1 59.1"><title>icon_laboratory</title><path d="M57.86,56.63H39.4a20.93,20.93,0,0,0,1.23-36.22V13.54h1.6a3.32,3.32,0,0,0,3.32-3.32v-2a3.33,3.33,0,0,0-3.32-3.33H35.7V1.23A1.23,1.23,0,0,0,34.47,0H24.62a1.23,1.23,0,0,0-1.23,1.23V4.92H16.87a3.34,3.34,0,0,0-3.33,3.33v2a3.33,3.33,0,0,0,3.33,3.32h1.6v6.87a21,21,0,0,0,1.21,36.22H1.23a1.24,1.24,0,0,0,0,2.47H57.86a1.24,1.24,0,1,0,0-2.47Zm-32-54.17h7.39V4.92H25.85ZM16,10.22v-2a.85.85,0,0,1,.86-.86H42.23a.86.86,0,0,1,.86.86v2a.87.87,0,0,1-.86.86H16.87A.86.86,0,0,1,16,10.22Zm11.08,3.32H32v8.62a2.46,2.46,0,0,1-4.92,0Zm-6.78,8.63a1.22,1.22,0,0,0,.62-1.07V13.54h3.69v8.62a4.93,4.93,0,1,0,9.85,0V13.54h3.7V21.1a1.23,1.23,0,0,0,.61,1.07,18.54,18.54,0,0,1,9.21,17l-.67.45c-2.6,1.8-4.36.72-6.93-1.06-1.57-1.09-3.19-2.22-5.11-2.22a5.12,5.12,0,0,0-2.67.78c-3.19,1.91-4.56,4.54-5.46,4.54a3.22,3.22,0,0,1-1.67-.86c-.8-.61-1.19-1-1.66-1.42-3.23-2.6-8.58-2.76-12.7-2.42A18.55,18.55,0,0,1,20.31,22.17ZM11.12,39.42c3.51-.31,8.84-.28,11.44,2.11l.36.33c1.79,1.6,3,2.25,4.23,2.25h0c1.48,0,2.44-1,3.45-2.1a14.57,14.57,0,0,1,3.27-2.79,2.68,2.68,0,0,1,1.41-.43c2.59,0,5.39,4.21,9.47,4.21a6.36,6.36,0,0,0,2.79-.67,18.47,18.47,0,0,1-36.42-2.91Z" fill="#115bc6"/><path d="M22.16,34.47a3.69,3.69,0,1,0-3.69-3.69A3.69,3.69,0,0,0,22.16,34.47Zm0-4.92a1.23,1.23,0,1,1-1.23,1.23A1.23,1.23,0,0,1,22.16,29.55Z" fill="#43c1fc"/><path d="M35.7,43.09a3.7,3.7,0,1,0,3.7,3.69A3.7,3.7,0,0,0,35.7,43.09Zm0,4.93a1.24,1.24,0,1,1,1.23-1.24A1.24,1.24,0,0,1,35.7,48Z" fill="#43c1fc"/><path d="M51.71,25.85A3.69,3.69,0,1,0,48,22.16,3.69,3.69,0,0,0,51.71,25.85Zm0-4.92a1.23,1.23,0,1,1-1.23,1.23A1.23,1.23,0,0,1,51.71,20.93Z" fill="#f9e900"/><path d="M6.16,18.47a3.7,3.7,0,1,0-3.7-3.7A3.7,3.7,0,0,0,6.16,18.47Zm0-4.93a1.24,1.24,0,1,1-1.24,1.23A1.24,1.24,0,0,1,6.16,13.54Z" fill="#f9e900"/></svg>