<svg xmlns="http://www.w3.org/2000/svg" width="50.01" height="49.96" viewBox="0 0 50.01 49.96"><title>icon_pah</title><path d="M30,35.47A7.71,7.71,0,0,0,31.58,20.2a3.21,3.21,0,1,0-1-.13c-.18,0-.36,0-.54,0a7.72,7.72,0,1,0,0,15.43ZM30.62,17a.84.84,0,1,1,.84.83A.84.84,0,0,1,30.62,17ZM24.67,27.75A5.35,5.35,0,1,1,30,33.1,5.35,5.35,0,0,1,24.67,27.75Z"/><path d="M49.82,23.39h0a1.18,1.18,0,0,0-1.64-.34c-2,1.34-3.63,1.89-4.71,1.63a2.22,2.22,0,0,1-1.32-1,16.66,16.66,0,0,0-1.47-5.72,4.15,4.15,0,0,0,.84-.16c1.74-.51,3.28-2.13,4.7-5a1.17,1.17,0,0,0,.07-.9,1.22,1.22,0,0,0-.59-.69,1.2,1.2,0,0,0-.91-.06,1.17,1.17,0,0,0-.68.59c-1.1,2.18-2.19,3.44-3.26,3.76a2.2,2.2,0,0,1-1.68-.25A17.2,17.2,0,0,0,35,11a3.85,3.85,0,0,0,.65-.56C37,9.16,37.47,7,37.28,3.83A1.18,1.18,0,0,0,34.92,4c.14,2.43-.17,4.08-.94,4.88a2.2,2.2,0,0,1-1.57.63,16.9,16.9,0,0,0-5.69-1.59,4,4,0,0,0,.28-.8c.43-1.77-.21-3.91-1.95-6.56A1.16,1.16,0,0,0,24.3,0a1.13,1.13,0,0,0-.89.17,1.13,1.13,0,0,0-.5.74,1.12,1.12,0,0,0,.17.89c1.34,2,1.88,3.62,1.62,4.7a2.1,2.1,0,0,1-1,1.32,17.13,17.13,0,0,0-5.72,1.47,4.68,4.68,0,0,0-.16-.83c-.51-1.75-2.14-3.29-5-4.7A1.18,1.18,0,1,0,11.75,5.9C13.93,7,15.2,8.09,15.51,9.16a2.17,2.17,0,0,1-.25,1.67A17.2,17.2,0,0,0,11.05,15a4.3,4.3,0,0,0-.55-.65C9.18,13.06,7,12.54,3.84,12.72A1.17,1.17,0,0,0,2.72,14,1.2,1.2,0,0,0,4,15.08c2.43-.14,4.09.18,4.89.94a2.17,2.17,0,0,1,.62,1.57,17,17,0,0,0-1.59,5.67A4.33,4.33,0,0,0,7.1,23c-1.77-.43-3.92.2-6.57,1.94a1.23,1.23,0,0,0-.51.75,1.21,1.21,0,0,0,.17.89,1.18,1.18,0,0,0,1.64.34c2-1.34,3.62-1.89,4.71-1.62a2.16,2.16,0,0,1,1.32,1A16.89,16.89,0,0,0,9.33,32a4.68,4.68,0,0,0-.83.16c-1.75.51-3.29,2.14-4.71,5a1.2,1.2,0,0,0-.07.91,1.15,1.15,0,0,0,.6.68,1.19,1.19,0,0,0,1.58-.52c1.1-2.18,2.2-3.45,3.26-3.76a2.16,2.16,0,0,1,1.68.25A17.34,17.34,0,0,0,15,38.92a4.36,4.36,0,0,0-.65.56c-1.25,1.32-1.77,3.49-1.59,6.65a1.18,1.18,0,0,0,1.18,1.11H14a1.2,1.2,0,0,0,.81-.39,1.18,1.18,0,0,0,.3-.86c-.14-2.43.18-4.07.95-4.88a2.15,2.15,0,0,1,1.56-.62,17.12,17.12,0,0,0,5.69,1.58,4.46,4.46,0,0,0-.28.8c-.43,1.77.21,3.91,1.95,6.56A1.19,1.19,0,0,0,26,50a1.26,1.26,0,0,0,.65-.19,1.2,1.2,0,0,0,.34-1.64c-1.34-2-1.89-3.62-1.63-4.71a2.12,2.12,0,0,1,1-1.31,17.12,17.12,0,0,0,5.73-1.47,4.68,4.68,0,0,0,.16.83c.52,1.75,2.14,3.29,5,4.71a1.21,1.21,0,0,0,1.59-.53,1.19,1.19,0,0,0-.53-1.59C36.08,43,34.81,41.87,34.5,40.8a2.18,2.18,0,0,1,.25-1.67A17.17,17.17,0,0,0,39,35a4.28,4.28,0,0,0,.56.64c1.32,1.26,3.48,1.78,6.66,1.6a1.17,1.17,0,0,0,.81-.4,1.16,1.16,0,0,0,.3-.85,1.17,1.17,0,0,0-.4-.82,1.15,1.15,0,0,0-.85-.29c-2.44.14-4.08-.18-4.89-1a2.17,2.17,0,0,1-.62-1.56,17,17,0,0,0,1.59-5.68,4.36,4.36,0,0,0,.79.28c1.77.42,3.91-.21,6.57-1.95a1.23,1.23,0,0,0,.51-.75A1.21,1.21,0,0,0,49.82,23.39ZM20.7,13.94a1,1,0,1,1,1,1A1,1,0,0,1,20.7,13.94Zm-2.37,0a3.38,3.38,0,1,0,3.38-3.37h-.12a14.88,14.88,0,1,1-1.63.49A3.36,3.36,0,0,0,18.33,13.94Z"/><path d="M30,32.19a4.44,4.44,0,1,0-4.45-4.44A4.45,4.45,0,0,0,30,32.19Zm-2.08-4.44A2.08,2.08,0,1,1,30,29.83,2.08,2.08,0,0,1,27.94,27.75Z"/><path d="M14.6,22.66a3.15,3.15,0,1,0,3.15,3.15A3.15,3.15,0,0,0,14.6,22.66Zm.79,3.15A.79.79,0,1,1,14.6,25,.8.8,0,0,1,15.39,25.81Z"/><path d="M20.66,24.24a3.15,3.15,0,1,0-3.15-3.15A3.16,3.16,0,0,0,20.66,24.24Zm-.79-3.15a.79.79,0,1,1,.79.78A.79.79,0,0,1,19.87,21.09Z"/><path d="M20,30.33a3.15,3.15,0,1,0,3.16,3.15A3.16,3.16,0,0,0,20,30.33Zm.79,3.15A.79.79,0,1,1,20,32.7.79.79,0,0,1,20.77,33.48Z"/></svg>