<svg xmlns="http://www.w3.org/2000/svg" width="45.15" height="45.22" viewBox="0 0 45.15 45.22"><title>icon_nopesticides</title><path d="M44.81.38a1.19,1.19,0,0,0-1.75,0L29.87,13.57a16.31,16.31,0,0,1-2-4,5,5,0,0,1,4.72-3.26,1.24,1.24,0,0,0,1.25-1.25V1.28A1.27,1.27,0,0,0,32.63,0H24.9L17.38,1.28l-5,.6a1.25,1.25,0,0,0-1.1,1.25V6.9a1.25,1.25,0,0,0,1.1,1.25L16,8.6a9.51,9.51,0,0,1-2.15,3.46L2.18.38A1.19,1.19,0,0,0,.43.38a1.19,1.19,0,0,0,0,1.75l16.65,16.7c-.35.35-.75.71-1.16,1.06-2.15,1.8-4.61,3.81-4.61,11.78v.46L.38,43a1.19,1.19,0,0,0,0,1.75,1.13,1.13,0,0,0,.9.41,1.25,1.25,0,0,0,.9-.36l9.23-9.22c.3,6.32,1.2,8.67,1.25,8.82a1.35,1.35,0,0,0,1.16.81H31.37a1.21,1.21,0,0,0,1.21-1,64.43,64.43,0,0,0,1.2-8.57L43,44.81a1.31,1.31,0,0,0,1.8,0,1.19,1.19,0,0,0,0-1.75L34,32.23c.15-6.27-.65-11.94-2.46-15.8-.1-.2-.2-.46-.35-.71L44.81,2.18A1.35,1.35,0,0,0,44.81.38Zm-16.75,15L22.6,20.84l-2.26-2.26c1.9-3.36,1.65-7.37,1.3-9.58h.05l.65.15c.05,0,.05,0,.1,0l.56.15c.05,0,.15.05.2.05l.45.15c.05,0,.1,0,.2,0l.6.31a7.08,7.08,0,0,0,.9.4s0,0,.1,0A22.81,22.81,0,0,0,28.06,15.37ZM18.83,3.59,25.2,2.53h6.12V3.89A7.63,7.63,0,0,0,25.91,7.8l-.31-.15a12.52,12.52,0,0,0-5.36-1.36H18.83Zm-5,2.2V4.24l2.51-.3V6.09Zm1.8,8.08a12.25,12.25,0,0,0,3-5.07h.5a13.94,13.94,0,0,1-.6,7.93Zm1.91,7.92a9.73,9.73,0,0,0,1.3-1.2l2,2-7,6.92C14.22,24.55,15.82,23.2,17.53,21.79ZM30.37,42.66H14.77a43.87,43.87,0,0,1-.9-9.53l8.73-8.78,8.87,8.88A70,70,0,0,1,30.37,42.66Zm1.15-12.89L24.35,22.6l5-5C30.72,20.69,31.42,25,31.52,29.77Z"/></svg>