<svg xmlns="http://www.w3.org/2000/svg" width="56.17" height="58.67" viewBox="0 0 56.17 58.67"><title>icon_parameters</title><path d="M49,32.12H23.72a1.25,1.25,0,0,0,0,2.5H34.49a10.09,10.09,0,0,1-6.07,3.7,10.52,10.52,0,0,1-1.85.17,10,10,0,0,1-3.78-19.35,7.51,7.51,0,0,0,3.42.83,7.37,7.37,0,0,0,2.61-.48l0,3.9a1.22,1.22,0,0,0,.37.88,1.25,1.25,0,0,0,.88.36h0l9-.06A1.22,1.22,0,0,0,40,24.2a1.25,1.25,0,0,0,.36-.88L40.24,6.17A1.25,1.25,0,0,0,39,4.93H38.7V1.25A1.25,1.25,0,0,0,37.45,0H31.21A1.25,1.25,0,0,0,30,1.25V5h0a1.31,1.31,0,0,0-.89.38s-.06.11-.1.16A7.39,7.39,0,0,0,20.4,7.78,21.56,21.56,0,0,0,20,49v7.18H2.54a1.25,1.25,0,1,0,0,2.5H41.23a1.25,1.25,0,1,0,0-2.5H30V49.74l.53-.08a21.65,21.65,0,0,0,16.72-15H49a1.25,1.25,0,0,0,0-2.5ZM37.45,7.49a1,1,0,0,0,.24,0h.07L37.84,18,31.31,18V18l.09-.09.23-.24c.11-.12.22-.23.32-.36a2.88,2.88,0,0,0,.22-.27l.27-.37c.06-.1.13-.2.18-.3s.16-.26.23-.4a3,3,0,0,0,.15-.31c.07-.14.13-.28.19-.43s.08-.21.11-.31a4.34,4.34,0,0,0,.14-.48c0-.1.06-.2.08-.3a5.07,5.07,0,0,0,.09-.54,2.56,2.56,0,0,0,0-.27,7.38,7.38,0,0,0,0-.82c0-.27,0-.53,0-.8,0-.08,0-.16,0-.24a4.85,4.85,0,0,0-.09-.55l-.06-.26c0-.18-.1-.36-.16-.54s-.05-.15-.08-.22c-.09-.24-.19-.48-.3-.71l0-.06c-.11-.21-.23-.42-.36-.62s-.09-.14-.14-.21-.21-.29-.32-.44l-.17-.21-.11-.13ZM31.34,22.13V20.52l6.53-.06v1.63ZM32.45,2.5H36.2V5L32.45,5Zm-6.24,5a5,5,0,0,1,3.08,8.92h0a5,5,0,0,1-6,.12,5,5,0,0,1-2.08-4.05,5,5,0,0,1,.93-2.9A5,5,0,0,1,26.21,7.49Zm-3.7,48.68V49.64a1.6,1.6,0,0,0,.23,0c.5.1,1,.17,1.52.22l.49,0c.6.05,1.2.09,1.81.09h0l.94,0v6.16Zm7.56-9c-.48.09-1,.17-1.46.22a20.11,20.11,0,0,1-2.05.11h0a19,19,0,0,1-5-.66h0A19.09,19.09,0,0,1,18.87,11l0,.22c0,.08,0,.16,0,.24a8.76,8.76,0,0,0-.08,1,7.34,7.34,0,0,0,.05.81,2,2,0,0,0,0,.24,5.67,5.67,0,0,0,.1.57,2.1,2.1,0,0,0,.06.24,5.16,5.16,0,0,0,.2.67l0,.09c.1.25.2.5.32.73l.11.19a4.27,4.27,0,0,0,.3.51l.13.21.39.51.1.13,0,0a12.55,12.55,0,0,0,6,23.57A12.54,12.54,0,0,0,37.5,34.62h7.14A19.14,19.14,0,0,1,30.07,47.2Z" fill="#115bc6"/><path d="M54.19,27.46H35A1.25,1.25,0,0,0,35,30h19.2a1.25,1.25,0,0,0,0-2.5Z" fill="#115bc6"/><path d="M24.75,14.51a2.49,2.49,0,0,0,1.46.47,2.5,2.5,0,0,0,2.5-2.5A2.49,2.49,0,0,0,26.21,10a2.5,2.5,0,0,0-1.46,4.52Z" fill="#115bc6"/><path d="M53.67,58.67H47.43a1.25,1.25,0,1,1,0-2.5h6.24a1.25,1.25,0,0,1,0,2.5Z" fill="#43c1fc"/><path d="M13.73,53.67H6.24a1.25,1.25,0,1,1,0-2.49h7.49a1.25,1.25,0,1,1,0,2.49Z" fill="#f9e900"/><path d="M8.74,49.93H1.25a1.25,1.25,0,0,1,0-2.5H8.74a1.25,1.25,0,1,1,0,2.5Z" fill="#f9e900"/><path d="M52.43,51.18a3.75,3.75,0,1,1,3.74-3.75A3.75,3.75,0,0,1,52.43,51.18Zm0-5a1.25,1.25,0,1,0,1.24,1.25A1.25,1.25,0,0,0,52.43,46.18Z" fill="#f9e900"/><path d="M47.43,16.23a5,5,0,1,1,5-5A5,5,0,0,1,47.43,16.23Zm0-7.49a2.5,2.5,0,1,0,2.5,2.49A2.5,2.5,0,0,0,47.43,8.74Z" fill="#f9e900"/><rect x="2.5" y="13.73" width="2.5" height="2.5" fill="#43c1fc"/><rect x="4.99" y="11.23" width="2.5" height="2.5" fill="#43c1fc"/><rect x="2.5" y="8.74" width="2.5" height="2.5" fill="#43c1fc"/><rect x="4.99" y="6.24" width="2.5" height="2.5" fill="#43c1fc"/><rect x="2.5" y="3.74" width="2.5" height="2.5" fill="#43c1fc"/></svg>