<svg xmlns="http://www.w3.org/2000/svg" width="52.45" height="54.08" viewBox="0 0 52.45 54.08"><title>icon_certification</title><rect x="32.36" y="12.79" width="2.23" height="2.23" fill="#43c1fc"/><rect x="27.9" y="12.79" width="2.23" height="2.23" fill="#43c1fc"/><rect x="23.44" y="12.79" width="2.23" height="2.23" fill="#43c1fc"/><rect x="18.97" y="12.79" width="2.23" height="2.23" fill="#43c1fc"/><path d="M52.45,4.84A4.65,4.65,0,0,0,47.84.17H8.34L6.38,0A5.71,5.71,0,0,0,2,1.5,6.19,6.19,0,0,0,0,6.1V29.53a1.12,1.12,0,0,0,1.12,1.12H3.35V53a1.11,1.11,0,0,0,1.11,1.11H49.1A1.12,1.12,0,0,0,50.22,53V8.77A4.6,4.6,0,0,0,52.45,4.84ZM2.23,28.42V6.1a4,4,0,0,1,1.24-3,3.49,3.49,0,0,1,2.72-.89h0l1.64.13a2.31,2.31,0,0,1,.24.2l.21.21.25.36c0,.08.1.16.14.24a1.89,1.89,0,0,1,.17.45,2,2,0,0,1,.08.22A2.9,2.9,0,0,1,9,4.78H9A3,3,0,0,1,7.82,7.21H4.46A1.12,1.12,0,0,0,3.35,8.33V28.42ZM48,9.44V51.85H5.58V9.44H48Zm-.08-2.23H10.67a5.31,5.31,0,0,0,.59-2.42h0a4.49,4.49,0,0,0,0-.64,1.2,1.2,0,0,0,0-.2c0-.14,0-.29-.08-.43s0-.15-.07-.23S11,3,10.92,2.92a2.44,2.44,0,0,0-.1-.24,2.21,2.21,0,0,0-.12-.27H47.84a2.41,2.41,0,0,1,2.38,2.43A2.37,2.37,0,0,1,47.91,7.21Z" fill="#115bc6"/><path d="M41.29,18.37H11.16a1.12,1.12,0,1,0,0,2.23H41.29a1.12,1.12,0,1,0,0-2.23Z" fill="#115bc6"/><path d="M41.29,22.84H11.16a1.12,1.12,0,1,0,0,2.23H41.29a1.12,1.12,0,1,0,0-2.23Z" fill="#115bc6"/><path d="M41.5,29.53H24.34a1.14,1.14,0,0,1,0-2.23H41.5a1.14,1.14,0,0,1,0,2.23Z" fill="#115bc6"/><path d="M41.5,34H25.24a1.15,1.15,0,0,1,0-2.24H41.5a1.14,1.14,0,0,1,0,2.24Z" fill="#115bc6"/><path d="M21.92,35.72a6.7,6.7,0,1,0-13.39,0,6.61,6.61,0,0,0,2.23,5v6.18a1.11,1.11,0,0,0,1.73.93L15.22,46,18,47.8a1.08,1.08,0,0,0,.62.19,1.11,1.11,0,0,0,1.12-1.12V40.69A6.61,6.61,0,0,0,21.92,35.72Zm-4.47,9.07-1.61-1.08a1.15,1.15,0,0,0-.62-.18,1.17,1.17,0,0,0-.62.18L13,44.79V42l.06,0c.22.07.46.12.7.18l.36.09a6.56,6.56,0,0,0,1.08.09h.06a6.38,6.38,0,0,0,1.08-.09c.13,0,.25-.06.37-.09s.47-.11.7-.18l.05,0Zm.45-5.5a4.45,4.45,0,0,1-2.68.89,4.37,4.37,0,0,1-.72-.06,4.46,4.46,0,1,1,3.4-.83Z" fill="#f9e900"/></svg>